<?xml version="1.0" encoding="iso-8859-1"?>
<svg version="1.1" id="heart"  xmlns="http://www.w3.org/2000/svg" xmlns:xlink="http://www.w3.org/1999/xlink" x="0px" y="0px"
	 viewBox="0 0 511.999 511.999" style="enable-background:new 0 0 511.999 511.999;" xml:space="preserve">
<path style="fill:#FBBED5;" d="M256,106.75C80.878-64.397-207.984,207.608,232.837,452.862c14.391,8.007,31.935,8.007,46.325,0
	C719.983,207.608,431.121-64.397,256,106.75z"/>
<path style="fill:#FD6064;" d="M256.008,413.332c-0.37,0-0.715-0.089-1.027-0.263C79.434,315.404,33.088,218.157,48.251,159.715
	c9.474-36.515,43.847-61.047,85.534-61.047c22.264,0,56.02,7.053,90.397,40.649l31.826,31.103l31.826-31.104
	c34.376-33.596,68.131-40.648,90.396-40.648c41.676,0,76.042,24.533,85.516,61.046c15.163,58.447-31.176,155.696-206.714,253.359
	C256.723,413.244,256.378,413.332,256.008,413.332z"/>
<path style="fill:#F0484A;" d="M79.157,163.482c8.303-33.977,35.733-58.181,70.449-63.645c-5.73-0.843-11.041-1.171-15.82-1.171
	c-41.686,0-76.059,24.534-85.534,61.047C33.186,217.779,78.86,314.148,251.615,411.176
	C104.298,314.823,65.033,221.279,79.157,163.482z"/>
<path style="fill:#39444D;" d="M362.487,248.56c-4.268,0-7.726-3.459-7.726-7.726v-20.705c0-4.267,3.458-7.726,7.726-7.726
	c4.268,0,7.726,3.459,7.726,7.726v20.706C370.214,245.1,366.755,248.56,362.487,248.56z"/>
<path style="fill:#FBBED5;" d="M376.589,278.993h-28.201c-4.268,0-7.726-3.459-7.726-7.726c0-4.267,3.458-7.726,7.726-7.726h28.201
	c4.268,0,7.726,3.459,7.726,7.726C384.315,275.534,380.856,278.993,376.589,278.993z"/>
<path style="fill:#39444D;" d="M149.512,248.56c-4.268,0-7.726-3.459-7.726-7.726v-20.705c0-4.267,3.458-7.726,7.726-7.726
	s7.726,3.459,7.726,7.726v20.706C157.238,245.1,153.779,248.56,149.512,248.56z"/>
<path style="fill:#FBBED5;" d="M163.612,278.993h-28.201c-4.268,0-7.726-3.459-7.726-7.726c0-4.267,3.458-7.726,7.726-7.726h28.201
	c4.268,0,7.726,3.459,7.726,7.726C171.338,275.534,167.88,278.993,163.612,278.993z"/>
<path style="fill:#39444D;" d="M256,277.824c-9.652,0-18.714-4.034-24.863-11.068c-2.809-3.213-2.481-8.093,0.731-10.902
	c3.213-2.809,8.094-2.481,10.902,0.731c3.214,3.677,8.036,5.785,13.23,5.785c5.193,0,10.015-2.109,13.23-5.785
	c2.808-3.213,7.689-3.541,10.901-0.732c3.213,2.808,3.542,7.689,0.732,10.902C274.715,273.79,265.652,277.824,256,277.824z"/>
<g>
</g>
<g>
</g>
<g>
</g>
<g>
</g>
<g>
</g>
<g>
</g>
<g>
</g>
<g>
</g>
<g>
</g>
<g>
</g>
<g>
</g>
<g>
</g>
<g>
</g>
<g>
</g>
<g>
</g>
</svg>
